<mxfile host="processflow.sharehoo.cn" modified="2021-04-20T10:16:51.010Z" agent="5.0 (Windows NT 10.0; Win64; x64) AppleWebKit/537.36 (KHTML, like Gecko) Chrome/89.0.4389.128 Safari/537.36 Edg/89.0.774.77" etag="w1cDYIUsnJey4H3rjpm2" version="14.3.2" type="github">
  <diagram id="us5BDo0gGAgGjKwnwMWT" name="第 1 页">
    <mxGraphModel dx="1422" dy="762" grid="1" gridSize="10" guides="1" tooltips="1" connect="1" arrows="1" fold="1" page="1" pageScale="1" pageWidth="827" pageHeight="1169" math="0" shadow="0">
      <root>
        <mxCell id="0" />
        <mxCell id="1" parent="0" />
        <mxCell id="w-NtdPQceYPi-ZGSG9R3-1" value="" style="shape=table;html=1;whiteSpace=wrap;startSize=0;container=1;collapsible=0;childLayout=tableLayout;" vertex="1" parent="1">
          <mxGeometry x="430" y="282.5" width="420" height="40" as="geometry" />
        </mxCell>
        <mxCell id="w-NtdPQceYPi-ZGSG9R3-2" value="" style="shape=partialRectangle;html=1;whiteSpace=wrap;collapsible=0;dropTarget=0;pointerEvents=0;fillColor=none;top=0;left=0;bottom=0;right=0;points=[[0,0.5],[1,0.5]];portConstraint=eastwest;" vertex="1" parent="w-NtdPQceYPi-ZGSG9R3-1">
          <mxGeometry width="420" height="40" as="geometry" />
        </mxCell>
        <mxCell id="w-NtdPQceYPi-ZGSG9R3-3" value="A" style="shape=partialRectangle;html=1;whiteSpace=wrap;connectable=0;fillColor=none;top=0;left=0;bottom=0;right=0;overflow=hidden;" vertex="1" parent="w-NtdPQceYPi-ZGSG9R3-2">
          <mxGeometry width="60" height="40" as="geometry" />
        </mxCell>
        <mxCell id="w-NtdPQceYPi-ZGSG9R3-4" value="B" style="shape=partialRectangle;html=1;whiteSpace=wrap;connectable=0;fillColor=none;top=0;left=0;bottom=0;right=0;overflow=hidden;" vertex="1" parent="w-NtdPQceYPi-ZGSG9R3-2">
          <mxGeometry x="60" width="60" height="40" as="geometry" />
        </mxCell>
        <mxCell id="w-NtdPQceYPi-ZGSG9R3-5" value="C" style="shape=partialRectangle;html=1;whiteSpace=wrap;connectable=0;fillColor=none;top=0;left=0;bottom=0;right=0;overflow=hidden;" vertex="1" parent="w-NtdPQceYPi-ZGSG9R3-2">
          <mxGeometry x="120" width="60" height="40" as="geometry" />
        </mxCell>
        <mxCell id="w-NtdPQceYPi-ZGSG9R3-6" value="D" style="shape=partialRectangle;html=1;whiteSpace=wrap;connectable=0;fillColor=none;top=0;left=0;bottom=0;right=0;overflow=hidden;" vertex="1" parent="w-NtdPQceYPi-ZGSG9R3-2">
          <mxGeometry x="180" width="60" height="40" as="geometry" />
        </mxCell>
        <mxCell id="w-NtdPQceYPi-ZGSG9R3-7" value="E" style="shape=partialRectangle;html=1;whiteSpace=wrap;connectable=0;fillColor=none;top=0;left=0;bottom=0;right=0;overflow=hidden;" vertex="1" parent="w-NtdPQceYPi-ZGSG9R3-2">
          <mxGeometry x="240" width="60" height="40" as="geometry" />
        </mxCell>
        <mxCell id="w-NtdPQceYPi-ZGSG9R3-8" value="" style="shape=partialRectangle;html=1;whiteSpace=wrap;connectable=0;fillColor=none;top=0;left=0;bottom=0;right=0;overflow=hidden;" vertex="1" parent="w-NtdPQceYPi-ZGSG9R3-2">
          <mxGeometry x="300" width="60" height="40" as="geometry" />
        </mxCell>
        <mxCell id="w-NtdPQceYPi-ZGSG9R3-9" style="shape=partialRectangle;html=1;whiteSpace=wrap;connectable=0;fillColor=none;top=0;left=0;bottom=0;right=0;overflow=hidden;" vertex="1" parent="w-NtdPQceYPi-ZGSG9R3-2">
          <mxGeometry x="360" width="60" height="40" as="geometry" />
        </mxCell>
        <mxCell id="w-NtdPQceYPi-ZGSG9R3-10" value="Client" style="shape=umlActor;verticalLabelPosition=bottom;verticalAlign=top;html=1;outlineConnect=0;" vertex="1" parent="1">
          <mxGeometry x="170" y="532.5" width="90" height="180" as="geometry" />
        </mxCell>
        <mxCell id="w-NtdPQceYPi-ZGSG9R3-11" value="Socket流" style="text;html=1;strokeColor=none;fillColor=none;align=center;verticalAlign=middle;whiteSpace=wrap;rounded=0;fontSize=16;" vertex="1" parent="1">
          <mxGeometry x="310" y="260" width="90" height="85" as="geometry" />
        </mxCell>
        <mxCell id="w-NtdPQceYPi-ZGSG9R3-12" value="发送：ABCDE" style="text;html=1;strokeColor=none;fillColor=none;align=center;verticalAlign=middle;whiteSpace=wrap;rounded=0;fontSize=16;" vertex="1" parent="1">
          <mxGeometry x="160" y="432.5" width="170" height="20" as="geometry" />
        </mxCell>
        <mxCell id="w-NtdPQceYPi-ZGSG9R3-13" value="" style="endArrow=classic;html=1;fontSize=16;exitX=0.5;exitY=0;exitDx=0;exitDy=0;exitPerimeter=0;entryX=0;entryY=0.5;entryDx=0;entryDy=0;" edge="1" parent="1" source="w-NtdPQceYPi-ZGSG9R3-10" target="w-NtdPQceYPi-ZGSG9R3-2">
          <mxGeometry width="50" height="50" relative="1" as="geometry">
            <mxPoint x="230" y="532.5" as="sourcePoint" />
            <mxPoint x="430" y="332.5" as="targetPoint" />
          </mxGeometry>
        </mxCell>
        <mxCell id="w-NtdPQceYPi-ZGSG9R3-14" value="Server" style="shape=umlActor;verticalLabelPosition=bottom;verticalAlign=top;html=1;outlineConnect=0;" vertex="1" parent="1">
          <mxGeometry x="1020" y="532.5" width="90" height="180" as="geometry" />
        </mxCell>
        <mxCell id="w-NtdPQceYPi-ZGSG9R3-15" value="" style="endArrow=classic;html=1;fontSize=16;exitX=1;exitY=0.5;exitDx=0;exitDy=0;entryX=0.5;entryY=0;entryDx=0;entryDy=0;entryPerimeter=0;" edge="1" parent="1" source="w-NtdPQceYPi-ZGSG9R3-2" target="w-NtdPQceYPi-ZGSG9R3-14">
          <mxGeometry width="50" height="50" relative="1" as="geometry">
            <mxPoint x="850" y="332.5" as="sourcePoint" />
            <mxPoint x="1050" y="522.5" as="targetPoint" />
          </mxGeometry>
        </mxCell>
        <mxCell id="w-NtdPQceYPi-ZGSG9R3-16" style="edgeStyle=orthogonalEdgeStyle;rounded=0;orthogonalLoop=1;jettySize=auto;html=1;exitX=0.5;exitY=1;exitDx=0;exitDy=0;entryX=0.5;entryY=0;entryDx=0;entryDy=0;fontSize=16;" edge="1" parent="1" source="w-NtdPQceYPi-ZGSG9R3-17" target="w-NtdPQceYPi-ZGSG9R3-19">
          <mxGeometry relative="1" as="geometry" />
        </mxCell>
        <mxCell id="w-NtdPQceYPi-ZGSG9R3-17" value="循环读取Socket流中的内容&lt;br&gt;" style="text;html=1;strokeColor=none;fillColor=none;align=center;verticalAlign=middle;whiteSpace=wrap;rounded=0;fontSize=16;" vertex="1" parent="1">
          <mxGeometry x="520" y="457.5" width="240" height="20" as="geometry" />
        </mxCell>
        <mxCell id="w-NtdPQceYPi-ZGSG9R3-18" style="edgeStyle=orthogonalEdgeStyle;rounded=0;orthogonalLoop=1;jettySize=auto;html=1;exitX=0.5;exitY=1;exitDx=0;exitDy=0;entryX=0.5;entryY=0;entryDx=0;entryDy=0;fontSize=16;" edge="1" parent="1" source="w-NtdPQceYPi-ZGSG9R3-19" target="w-NtdPQceYPi-ZGSG9R3-21">
          <mxGeometry relative="1" as="geometry" />
        </mxCell>
        <mxCell id="w-NtdPQceYPi-ZGSG9R3-19" value="&#xa;&#xa;&lt;span style=&quot;color: rgb(240, 240, 240); font-family: helvetica; font-size: 16px; font-style: normal; font-weight: 400; letter-spacing: normal; text-align: center; text-indent: 0px; text-transform: none; word-spacing: 0px; background-color: rgb(42, 42, 42); display: inline; float: none;&quot;&gt;每次读取的长度为3&lt;/span&gt;&#xa;&#xa;" style="text;html=1;strokeColor=none;fillColor=none;align=center;verticalAlign=middle;whiteSpace=wrap;rounded=0;fontSize=16;" vertex="1" parent="1">
          <mxGeometry x="515" y="527.5" width="250" height="20" as="geometry" />
        </mxCell>
        <mxCell id="w-NtdPQceYPi-ZGSG9R3-20" style="edgeStyle=orthogonalEdgeStyle;rounded=0;orthogonalLoop=1;jettySize=auto;html=1;exitX=0.5;exitY=1;exitDx=0;exitDy=0;entryX=0.5;entryY=0;entryDx=0;entryDy=0;fontSize=16;" edge="1" parent="1" source="w-NtdPQceYPi-ZGSG9R3-21" target="w-NtdPQceYPi-ZGSG9R3-22">
          <mxGeometry relative="1" as="geometry" />
        </mxCell>
        <mxCell id="w-NtdPQceYPi-ZGSG9R3-21" value="第一次读取到：ABC" style="text;html=1;strokeColor=none;fillColor=none;align=center;verticalAlign=middle;whiteSpace=wrap;rounded=0;fontSize=16;" vertex="1" parent="1">
          <mxGeometry x="560" y="597.5" width="160" height="20" as="geometry" />
        </mxCell>
        <mxCell id="w-NtdPQceYPi-ZGSG9R3-22" value="第二次读取到：DE" style="text;html=1;strokeColor=none;fillColor=none;align=center;verticalAlign=middle;whiteSpace=wrap;rounded=0;fontSize=16;" vertex="1" parent="1">
          <mxGeometry x="570" y="657.5" width="140" height="20" as="geometry" />
        </mxCell>
        <mxCell id="w-NtdPQceYPi-ZGSG9R3-23" value="" style="shape=flexArrow;endArrow=classic;html=1;fontSize=16;" edge="1" parent="1">
          <mxGeometry width="50" height="50" relative="1" as="geometry">
            <mxPoint x="645" y="747.5" as="sourcePoint" />
            <mxPoint x="645" y="677.5" as="targetPoint" />
          </mxGeometry>
        </mxCell>
        <mxCell id="w-NtdPQceYPi-ZGSG9R3-24" value="因为没有数据可以读取了，读不到-1所以read()就会阻塞直到读到-1" style="text;html=1;strokeColor=none;fillColor=none;align=center;verticalAlign=middle;whiteSpace=wrap;rounded=0;fontSize=16;" vertex="1" parent="1">
          <mxGeometry x="515" y="747.5" width="250" height="40" as="geometry" />
        </mxCell>
        <mxCell id="w-NtdPQceYPi-ZGSG9R3-25" value="使用read一次读取多个数据的时候是不会把-1读到数组中的，因为rerad方法里面进行了处理。" style="text;html=1;strokeColor=none;fillColor=none;align=center;verticalAlign=middle;whiteSpace=wrap;rounded=0;fontSize=16;" vertex="1" parent="1">
          <mxGeometry x="465" y="382.5" width="350" height="60" as="geometry" />
        </mxCell>
      </root>
    </mxGraphModel>
  </diagram>
</mxfile>
